<svg width="800" height="300" viewBox="0 0 800 300" fill="none" xmlns="http://www.w3.org/2000/svg">
<rect width="800" height="300" fill="#EEEEEE"/>
<rect width="800" height="300" fill="#222222"/>
<g filter="url(#filter0_d)">
<path d="M298.723 67.8125L345.207 183.828L391.691 67.8125H416.008V210H397.258V154.629L399.016 94.8633L352.336 210H337.98L291.398 95.1562L293.254 154.629V210H274.504V67.8125H298.723ZM449.113 210V67.8125H489.25C501.62 67.8125 512.557 70.5469 522.062 76.0156C531.568 81.4844 538.892 89.2643 544.035 99.3555C549.243 109.447 551.88 121.035 551.945 134.121V143.203C551.945 156.615 549.341 168.366 544.133 178.457C538.99 188.548 531.6 196.296 521.965 201.699C512.395 207.103 501.229 209.87 488.469 210H449.113ZM467.863 83.2422V194.668H487.59C502.043 194.668 513.273 190.176 521.281 181.191C529.354 172.207 533.391 159.414 533.391 142.812V134.512C533.391 118.366 529.582 105.833 521.965 96.9141C514.413 87.9297 503.671 83.3724 489.738 83.2422H467.863ZM580.363 210V67.8125H626.848C642.277 67.8125 653.866 71.0026 661.613 77.3828C669.426 83.763 673.332 93.2031 673.332 105.703C673.332 112.344 671.444 118.236 667.668 123.379C663.892 128.457 658.749 132.396 652.238 135.195C659.921 137.344 665.975 141.445 670.402 147.5C674.895 153.49 677.141 160.651 677.141 168.984C677.141 181.745 673.007 191.771 664.738 199.062C656.47 206.354 644.784 210 629.68 210H580.363ZM599.113 143.496V194.668H630.07C638.794 194.668 645.663 192.422 650.676 187.93C655.754 183.372 658.293 177.122 658.293 169.18C658.293 152.057 648.983 143.496 630.363 143.496H599.113ZM599.113 128.457H627.434C635.637 128.457 642.18 126.406 647.062 122.305C652.01 118.203 654.484 112.637 654.484 105.605C654.484 97.793 652.206 92.1289 647.648 88.6133C643.091 85.0326 636.158 83.2422 626.848 83.2422H599.113V128.457Z" fill="#FF6464"/>
</g>
<g filter="url(#filter1_d)">
<path d="M243.91 131.25V146.602H255.746V154.98H243.91V194.297C243.91 196.836 244.438 198.75 245.492 200.039C246.547 201.289 248.344 201.914 250.883 201.914C252.133 201.914 253.852 201.68 256.039 201.211V210C253.188 210.781 250.414 211.172 247.719 211.172C242.875 211.172 239.223 209.707 236.762 206.777C234.301 203.848 233.07 199.688 233.07 194.297V154.98H221.527V146.602H233.07V131.25H243.91Z" fill="#878787"/>
<path d="M181.898 180.645L175.102 187.734V210H164.262V120H175.102V174.434L180.902 167.461L200.648 146.602H213.832L189.164 173.086L216.703 210H203.988L181.898 180.645Z" fill="#878787"/>
<path d="M108.691 154.277C113.496 148.379 119.746 145.43 127.441 145.43C140.84 145.43 147.598 152.988 147.715 168.105V210H136.875V168.047C136.836 163.477 135.781 160.098 133.711 157.91C131.68 155.723 128.496 154.629 124.16 154.629C120.645 154.629 117.559 155.566 114.902 157.441C112.246 159.316 110.176 161.777 108.691 164.824V210H97.8516V120H108.691V154.277Z" fill="#878787"/>
</g>
<defs>
<filter id="filter0_d" x="270.504" y="67.8125" width="410.637" height="150.188" filterUnits="userSpaceOnUse" color-interpolation-filters="sRGB">
<feFlood flood-opacity="0" result="BackgroundImageFix"/>
<feColorMatrix in="SourceAlpha" type="matrix" values="0 0 0 0 0 0 0 0 0 0 0 0 0 0 0 0 0 0 127 0"/>
<feOffset dy="4"/>
<feGaussianBlur stdDeviation="2"/>
<feColorMatrix type="matrix" values="0 0 0 0 0 0 0 0 0 0 0 0 0 0 0 0 0 0 0.25 0"/>
<feBlend mode="normal" in2="BackgroundImageFix" result="effect1_dropShadow"/>
<feBlend mode="normal" in="SourceGraphic" in2="effect1_dropShadow" result="shape"/>
</filter>
<filter id="filter1_d" x="93.8516" y="120" width="166.188" height="99.1719" filterUnits="userSpaceOnUse" color-interpolation-filters="sRGB">
<feFlood flood-opacity="0" result="BackgroundImageFix"/>
<feColorMatrix in="SourceAlpha" type="matrix" values="0 0 0 0 0 0 0 0 0 0 0 0 0 0 0 0 0 0 127 0"/>
<feOffset dy="4"/>
<feGaussianBlur stdDeviation="2"/>
<feColorMatrix type="matrix" values="0 0 0 0 0 0 0 0 0 0 0 0 0 0 0 0 0 0 0.25 0"/>
<feBlend mode="normal" in2="BackgroundImageFix" result="effect1_dropShadow"/>
<feBlend mode="normal" in="SourceGraphic" in2="effect1_dropShadow" result="shape"/>
</filter>
</defs>
</svg>
